<svg width="32" height="32" viewBox="0 0 32 32" fill="none" xmlns="http://www.w3.org/2000/svg">
  <!-- Background -->
  <rect width="32" height="32" fill="#2C3E50" rx="6"/>

  <!-- Potion Bottle - maximizado para visibilidade -->
  <g transform="translate(4, 2)">
    <!-- Cork/cap -->
    <rect x="9" y="1" width="6" height="3" rx="1" fill="#D4A5A5" opacity="0.9"/>

    <!-- Bottle neck -->
    <rect x="8.5" y="3.5" width="7" height="4.5" rx="1" fill="none" stroke="#F5F2ED" stroke-width="1.8" stroke-linecap="round" stroke-linejoin="round"/>

    <!-- Main bottle body - bem grande -->
    <path d="M 6 8 L 8.5 8 L 8.5 10 Q 8.5 11 7 12.5 L 7 22 Q 7 24 9 24 L 15 24 Q 17 24 17 22 L 17 12.5 Q 15.5 11 15.5 10 L 15.5 8 L 18 8"
          fill="none"
          stroke="#F5F2ED"
          stroke-width="2"
          stroke-linecap="round"
          stroke-linejoin="round"/>

    <!-- Liquid inside - preenchimento com cor pastel -->
    <path d="M 8 15 Q 8 16 8.5 17 L 8.5 21.5 Q 8.5 22.5 9.5 22.5 L 14.5 22.5 Q 15.5 22.5 15.5 21.5 L 15.5 17 Q 16 16 16 15 L 8 15 Z"
          fill="#A8D5BA"
          opacity="0.4"/>

    <!-- Liquid surface wave -->
    <path d="M 8 15 Q 10 14.5 12 15 T 16 15"
          fill="none"
          stroke="#A8D5BA"
          stroke-width="1.8"
          stroke-linecap="round"/>

    <!-- Bubbles grandes e visíveis -->
    <circle cx="10.5" cy="19" r="1" fill="#A8D5BA" opacity="0.7"/>
    <circle cx="13" cy="17" r="0.8" fill="#A8D5BA" opacity="0.6"/>
    <circle cx="11" cy="21" r="0.7" fill="#F5F2ED" opacity="0.5"/>

    <!-- Sparkles mágicos -->
    <g stroke="#B8B9D3" stroke-width="1.5" stroke-linecap="round" opacity="0.9">
      <!-- Sparkle direita -->
      <path d="M 20 10 L 20 12 M 19 11 L 21 11"/>
      <!-- Sparkle esquerda baixo -->
      <path d="M 4 14 L 4 15.5 M 3.25 14.75 L 4.75 14.75" stroke-width="1.2"/>
      <!-- Sparkle direita baixo -->
      <path d="M 19.5 18 L 19.5 19.5 M 18.75 18.75 L 20.25 18.75" stroke-width="1.2"/>
    </g>

    <!-- Highlight no vidro para dar profundidade -->
    <path d="M 9.5 10 L 9.5 20 Q 9.5 21 10 21"
          fill="none"
          stroke="#F5F2ED"
          stroke-width="0.8"
          opacity="0.3"
          stroke-linecap="round"/>
  </g>
</svg>
